<?xml version="1.0" standalone="no"?>
<!DOCTYPE svg PUBLIC "-//W3C//DTD SVG 20010904//EN"
 "http://www.w3.org/TR/2001/REC-SVG-20010904/DTD/svg10.dtd">
<svg version="1.0" xmlns="http://www.w3.org/2000/svg"
 width="225.000000pt" height="225.000000pt" viewBox="0 0 225.000000 225.000000"
 preserveAspectRatio="xMidYMid meet">

<g transform="translate(0.000000,225.000000) scale(0.100000,-0.100000)"
fill="#000000" stroke="none">
<path d="M616 2129 c-37 -32 -56 -79 -56 -136 l0 -33 -268 0 c-195 0 -271 -3
-280 -12 -9 -9 -12 -221 -12 -890 0 -737 2 -884 14 -913 29 -69 -38 -65 1111
-65 1149 0 1082 -4 1111 65 12 29 14 176 14 913 0 669 -3 881 -12 890 -9 9
-89 12 -300 12 l-288 0 0 33 c0 57 -19 104 -56 136 -28 25 -43 31 -82 31 -53
0 -103 -25 -124 -62 -7 -13 -15 -48 -18 -78 l-5 -55 -260 0 -260 0 -5 55 c-3
30 -11 65 -18 78 -21 37 -71 62 -124 62 -39 0 -54 -6 -82 -31z m122 -55 c21
-15 22 -21 22 -169 0 -148 -1 -154 -22 -169 -31 -22 -45 -20 -73 9 -24 23 -25
29 -25 160 0 131 1 137 25 160 28 29 42 31 73 9z m807 -9 c24 -23 25 -29 25
-160 0 -131 -1 -137 -25 -160 -28 -29 -42 -31 -73 -9 -21 15 -22 21 -22 169 0
148 1 154 22 169 31 22 45 20 73 -9z m-985 -227 c0 -78 16 -122 56 -157 29
-26 43 -31 88 -31 92 0 128 43 136 160 l5 75 260 0 260 0 5 -75 c8 -117 44
-160 136 -160 94 0 144 65 144 188 l0 52 260 0 260 0 0 -205 0 -205 -1045 0
-1045 0 0 205 0 205 240 0 240 0 0 -52z m1610 -1046 c0 -460 -3 -611 -12 -620
-17 -17 -2049 -17 -2066 0 -9 9 -12 160 -12 620 l0 608 1045 0 1045 0 0 -608z"/>
<path d="M714 1097 c-20 -17 -27 -33 -27 -57 0 -39 40 -80 79 -80 66 0 100 98
48 139 -35 27 -66 26 -100 -2z"/>
<path d="M1436 1099 c-52 -41 -18 -139 48 -139 39 0 79 41 79 80 0 24 -7 40
-27 57 -34 28 -65 29 -100 2z"/>
<path d="M885 659 c-34 -55 111 -139 240 -139 129 0 277 85 235 135 -18 22
-42 18 -80 -10 -83 -61 -227 -61 -310 0 -35 26 -74 33 -85 14z"/>
</g>
</svg>
